<svg width="64" height="64" viewBox="0 0 64 64" fill="none" xmlns="http://www.w3.org/2000/svg">
  <defs>
    <linearGradient id="bg" x1="0" y1="0" x2="64" y2="64">
      <stop offset="0" stop-color="#2a1466"/>
      <stop offset="0.5" stop-color="#160b33"/>
      <stop offset="1" stop-color="#07121f"/>
    </linearGradient>
    <linearGradient id="a" x1="12" y1="12" x2="52" y2="52">
      <stop offset="0" stop-color="#b79bff"/>
      <stop offset="1" stop-color="#7c4dff"/>
    </linearGradient>
    <linearGradient id="b" x1="52" y1="12" x2="12" y2="52">
      <stop offset="0" stop-color="#7af0ff"/>
      <stop offset="1" stop-color="#22d3ee"/>
    </linearGradient>
    <radialGradient id="glow" cx="0.5" cy="0.4" r="0.6">
      <stop offset="0" stop-color="#a07dff" stop-opacity="0.55"/>
      <stop offset="1" stop-color="#a07dff" stop-opacity="0"/>
    </radialGradient>
  </defs>
  <rect x="2" y="2" width="60" height="60" rx="18" fill="url(#bg)" stroke="url(#a)" stroke-opacity="0.35" stroke-width="1.5"/>
  <rect x="2" y="2" width="60" height="60" rx="18" fill="url(#glow)"/>
  <path d="M20 6 H44 A14 14 0 0 1 58 20 V24 C46 14 18 14 6 24 V20 A14 14 0 0 1 20 6 Z" fill="#ffffff" opacity="0.10"/>
  <path d="M16 16 C 28 24, 36 40, 48 48" stroke="url(#a)" stroke-width="5" stroke-linecap="round"/>
  <path d="M48 16 C 36 24, 28 40, 16 48" stroke="url(#b)" stroke-width="5" stroke-linecap="round"/>
  <circle cx="32" cy="32" r="3.4" fill="#ffffff"/>
  <circle cx="16" cy="16" r="3" fill="#c5b3ff"/>
  <circle cx="48" cy="48" r="3" fill="#c5b3ff"/>
  <circle cx="48" cy="16" r="3" fill="#8ef3ff"/>
  <circle cx="16" cy="48" r="3" fill="#8ef3ff"/>
</svg>
